<svg width="55" height="55" viewBox="0 0 55 55" fill="none" xmlns="http://www.w3.org/2000/svg">
<path fill-rule="evenodd" clip-rule="evenodd" d="M0 50C0 37.2975 10.2975 27 23 27C35.7025 27 46 37.2975 46 50V55H0V50ZM44 53V50C44 38.402 34.598 29 23 29C11.402 29 2 38.402 2 50V53H44Z" transform="translate(5)" fill="#5C7812"/>
<path fill-rule="evenodd" clip-rule="evenodd" d="M38 14.5C38 22.5081 31.5081 29 23.5 29C15.4919 29 9 22.5081 9 14.5C9 6.49187 15.4919 0 23.5 0C31.5081 0 38 6.49187 38 14.5ZM36 14.5C36 21.4036 30.4036 27 23.5 27C17.0584 27 11.7549 22.1275 11.0739 15.8671C14.3231 13.873 16.7261 10.6343 17.6194 6.81483C20.2418 10.5549 24.5854 13 29.5 13C31.7017 13 33.7888 12.5093 35.6578 11.6313L35.481 10.9242C35.8187 12.0571 36 13.2574 36 14.5ZM35.0472 9.70481C33.3757 10.5339 31.4923 11 29.5 11C24.3381 11 19.907 7.87112 17.9997 3.40648C17.9994 3.36186 17.9989 3.31728 17.9982 3.27276C19.6584 2.4577 21.5257 2 23.5 2C28.7047 2 33.1665 5.18095 35.0472 9.70481ZM15.9581 4.53068C13.2027 6.61847 11.3395 9.82238 11.0419 13.4693C13.7973 11.3815 15.6605 8.1776 15.9581 4.53068Z" transform="translate(5)" fill="#5C7812"/>
</svg>
